<?xml version="1.0" encoding="UTF-8" standalone="no"?>
<svg
   xmlns:dc="http://purl.org/dc/elements/1.1/"
   xmlns:cc="http://creativecommons.org/ns#"
   xmlns:rdf="http://www.w3.org/1999/02/22-rdf-syntax-ns#"
   xmlns:svg="http://www.w3.org/2000/svg"
   xmlns="http://www.w3.org/2000/svg"
   xmlns:sodipodi="http://sodipodi.sourceforge.net/DTD/sodipodi-0.dtd"
   xmlns:inkscape="http://www.inkscape.org/namespaces/inkscape"
   width="220.10132mm"
   height="108.3027mm"
   viewBox="0 0 220.10132 108.3027"
   version="1.1"
   id="svg8"
   inkscape:version="1.0.2-2 (e86c870879, 2021-01-15)"
   sodipodi:docname="logo.svg">
  <defs
     id="defs2" />
  <sodipodi:namedview
     id="base"
     pagecolor="#ffffff"
     bordercolor="#666666"
     borderopacity="1.0"
     inkscape:pageopacity="0.0"
     inkscape:pageshadow="2"
     inkscape:zoom="0.49497474"
     inkscape:cx="585.83091"
     inkscape:cy="427.32097"
     inkscape:document-units="mm"
     inkscape:current-layer="g1092"
     inkscape:document-rotation="0"
     showgrid="false"
     showguides="true"
     inkscape:window-width="1280"
     inkscape:window-height="961"
     inkscape:window-x="-8"
     inkscape:window-y="-8"
     inkscape:window-maximized="1" />
  <metadata
     id="metadata5">
    <rdf:RDF>
      <cc:Work
         rdf:about="">
        <dc:format>image/svg+xml</dc:format>
        <dc:type
           rdf:resource="http://purl.org/dc/dcmitype/StillImage" />
        <dc:title />
      </cc:Work>
    </rdf:RDF>
  </metadata>
  <g
     inkscape:label="Layer 1"
     inkscape:groupmode="layer"
     id="layer1"
     transform="translate(40.503027,-53.949851)">
    <g
       id="g1102"
       transform="translate(-8.9685141,-50.727478)">
      <g
         id="g1092"
         style="fill:#fcfcfc;opacity:0.996;fill-opacity:1">
        <path
           id="path837"
           style="font-style:normal;font-variant:normal;font-weight:normal;font-stretch:normal;font-size:120.079px;line-height:350.594px;font-family:Quantum;-inkscape-font-specification:Quantum;opacity:1;fill:#ffffff;fill-opacity:1;stroke-width:9.00594"
           d="m 19.499065,105.14965 -35.303272,57.99801 h 0.05736 l -15.787666,25.93692 h 23.8957015 l 23.2952155,-38.30515 -0.0217,-0.0357 3.854028,-6.33708 22.104593,36.6329 4.923215,8.1654 H 60.514131 C 53.734685,185.55047 47.809117,180.3067 43.52292,173.90049 35.666581,162.49077 33.47609,147.56983 37.137781,134.27087 Z"
           inkscape:export-xdpi="55.39267"
           inkscape:export-ydpi="55.39267" />
        <path
           id="rect905"
           style="opacity:1;fill:#ffffff;fill-opacity:1;stroke:#99cf57;stroke-width:0;stroke-linecap:round;stroke-linejoin:round;paint-order:stroke fill markers"
           d="m 119.76171,105.93048 v 0.85421 c 8.17433,5.17673 14.75015,12.88514 18.5043,21.81211 5.84595,13.41742 4.76629,29.50644 -2.47427,42.17882 -3.79393,6.862 -9.41241,12.59748 -16.03003,16.75763 v 0.89142 h 68.8051 v -20.41426 h -29.06644 c 1.43891,-3.40113 2.53412,-6.94692 3.25355,-10.56628 h 25.81289 v -20.41322 h -25.79946 c -0.71211,-3.662 -1.8095,-7.24929 -3.26078,-10.68772 h 29.06024 v -20.41271 h -48.39188 z"
           sodipodi:nodetypes="cccccccccccccccccc"
           inkscape:export-xdpi="55.39267"
           inkscape:export-ydpi="55.39267" />
        <path
           id="path879"
           style="opacity:1;fill:#f9f9f9;fill-opacity:1;stroke:#99cf57;stroke-width:0;stroke-linecap:round;stroke-linejoin:round;paint-order:stroke fill markers"
           d="m 88.981647,104.67733 a 42.499999,42.499999 0 0 0 -42.49973,42.50025 42.499999,42.499999 0 0 0 42.49973,42.49973 42.499999,42.499999 0 0 0 39.423953,-26.62473 h -25.17004 a 21.3353,21.3353 0 0 1 -14.253913,5.46013 21.3353,21.3353 0 0 1 -21.33513,-21.33513 21.3353,21.3353 0 0 1 21.33513,-21.33565 21.3353,21.3353 0 0 1 14.254943,5.46065 H 128.4056 A 42.499999,42.499999 0 0 0 88.981647,104.67733 Z"
           inkscape:export-xdpi="14.941178"
           inkscape:export-ydpi="14.941178" />
      </g>
      <text
         xml:space="preserve"
         style="font-size:17.535px;line-height:51.1967px;font-family:sans-serif;fill:#fcfcfc;stroke-width:1.31512;opacity:0.996;fill-opacity:1;"
         x="19.937319"
         y="212.78255"
         id="text1087"
         transform="scale(1.0000778,0.9999222)"
         inkscape:export-xdpi="55.39267"
         inkscape:export-ydpi="55.39267"><tspan
           sodipodi:role="line"
           id="tspan1085"
           x="19.937319"
           y="212.78255"
           style="font-style:normal;font-variant:normal;font-weight:bold;font-stretch:normal;font-family:'Arial Rounded MT Bold';-inkscape-font-specification:'Arial Rounded MT Bold, Bold';fill:#fcfcfc;stroke-width:1.31512;fill-opacity:1;"
           dy="0 0 0 0 0 0 0 0">INVESTMENT</tspan></text>
    </g>
  </g>
</svg>
